<?xml version="1.0" standalone="no"?>
<!DOCTYPE svg PUBLIC "-//W3C//DTD SVG 20010904//EN"
 "http://www.w3.org/TR/2001/REC-SVG-20010904/DTD/svg10.dtd">
<svg version="1.0" xmlns="http://www.w3.org/2000/svg"
 width="618.000000pt" height="618.000000pt" viewBox="0 0 618.000000 618.000000"
 preserveAspectRatio="xMidYMid meet">
<metadata>
Created by potrace 1.14, written by Peter Selinger 2001-2017
</metadata>
<g transform="translate(0.000000,618.000000) scale(0.100000,-0.100000)"
fill="#000000" stroke="none">
<path d="M1765 6158 c-16 -6 -46 -21 -65 -33 -55 -35 -311 -294 -634 -640
-130 -139 -133 -237 -15 -487 47 -100 66 -155 89 -260 16 -73 34 -148 41 -167
10 -29 8 -43 -14 -110 -61 -177 -71 -349 -30 -484 29 -95 80 -201 131 -272 39
-54 152 -170 192 -198 l24 -17 -48 -47 c-59 -58 -97 -112 -125 -178 -24 -58
-51 -178 -46 -206 3 -14 -2 -19 -18 -20 -12 0 -123 -1 -247 -2 -206 -2 -229
-4 -272 -24 -64 -29 -122 -91 -147 -155 -20 -52 -20 -67 -18 -1223 l2 -1170
28 -55 c24 -48 54 -79 120 -123 16 -11 14 -12 -12 -13 -62 -3 -127 -82 -118
-142 8 -47 35 -91 70 -109 30 -16 180 -17 2431 -18 2656 0 2449 -5 2489 63 50
87 -3 202 -95 206 -25 1 -27 2 -12 11 35 20 96 79 112 109 40 74 40 68 37
1263 -1 637 -4 1165 -7 1173 -24 79 -81 145 -158 183 -43 21 -59 22 -300 24
-330 2 -312 2 -306 11 9 15 -23 152 -54 226 -17 41 -50 103 -72 138 l-40 62
23 19 c186 148 298 313 350 514 35 137 14 339 -53 495 -20 47 -20 47 0 75 34
48 69 143 113 308 54 204 66 267 63 332 -5 108 -44 182 -164 310 -170 182
-300 355 -324 431 -12 37 -94 112 -152 139 -42 19 -72 25 -122 25 -113 0 -289
-51 -330 -95 -46 -49 -57 -143 -27 -238 5 -16 -5 -12 -53 19 -64 41 -196 101
-277 126 -73 21 -238 53 -330 63 -123 12 -537 9 -655 -6 -200 -25 -405 -88
-532 -165 l-55 -33 3 87 c4 154 -39 231 -148 266 -66 20 -203 27 -243 12z"/>
</g>
</svg>
